<mxfile host="app.diagrams.net" modified="2024-02-07T08:31:18.291Z" agent="Mozilla/5.0 (Windows NT 10.0; Win64; x64) AppleWebKit/537.36 (KHTML, like Gecko) Chrome/121.0.0.0 Safari/537.36 Edg/121.0.0.0" version="21.6.1" etag="qr0RTvJsoRZk9m02YoFo" type="github">
  <diagram name="Pagina-1" id="25PTulykWsrw73_SO19j">
    <mxGraphModel>
      <root>
        <mxCell id="0" />
        <mxCell id="1" parent="0" />
      </root>
    </mxGraphModel>
  </diagram>
</mxfile>
